<?xml version="1.0" encoding="UTF-8"?>
<svg width="16px" height="16px" viewBox="0 0 16 16" version="1.1" xmlns="http://www.w3.org/2000/svg" xmlns:xlink="http://www.w3.org/1999/xlink">
    <title>切换</title>
    <g id="页面-1" stroke="none" stroke-width="1" fill="none" fill-rule="evenodd">
        <g id="1产品管理-产品运营分析-切换" transform="translate(-1292.000000, -617.000000)" fill-rule="nonzero">
            <g id="编组-5" transform="translate(264.000000, 557.000000)">
                <g id="编组-8" transform="translate(0.000000, 36.000000)">
                    <g id="编组-13备份-6" transform="translate(1028.000000, 22.000000)">
                        <g id="切换" transform="translate(0.000000, 2.000000)">
                            <rect id="矩形" fill="#000000" opacity="0" x="0" y="0" width="16" height="16"></rect>
                            <path d="M14.06875,6.63859375 C14.3729688,6.63859375 14.6473438,6.4553125 14.7639063,6.1740625 C14.8804688,5.893125 14.8159375,5.569375 14.6009375,5.3540625 L11.1557813,1.90921875 C11.0417188,1.79515625 10.8570313,1.79515625 10.7429688,1.90921875 L10.0915625,2.560625 C9.9775,2.6746875 9.9775,2.85953125 10.0915625,2.9734375 L12.2521875,5.13390625 L1.34875,5.13390625 C1.18953125,5.13390625 1.0603125,5.26296875 1.0603125,5.42234375 L1.0603125,6.3503125 C1.0603125,6.50953125 1.189375,6.63875 1.34875,6.63875 L14.06875,6.63875 L14.06875,6.63859375 Z M14.6507813,9.355 L1.934375,9.355 C1.63015625,9.355 1.35578125,9.53828125 1.23921875,9.81953125 C1.12265625,10.1004688 1.1871875,10.4242188 1.4021875,10.6395313 L4.84734375,14.0845313 C4.96140625,14.1985938 5.14609375,14.1985938 5.26015625,14.0845313 L5.9115625,13.433125 C6.025625,13.3190625 6.025625,13.1342188 5.9115625,13.0203125 L3.7509375,10.8596875 L14.6507813,10.8596875 C14.8120313,10.8596875 14.9426563,10.7289063 14.9426563,10.5678125 L14.9426563,9.64703125 C14.9426563,9.48578125 14.8120313,9.355 14.6507813,9.355 Z" id="形状" fill="#A6B3C5"></path>
                        </g>
                    </g>
                </g>
            </g>
        </g>
    </g>
</svg>