<?xml version="1.0" encoding="UTF-8"?>
<svg width="14px" height="14px" viewBox="0 0 14 14" version="1.1" xmlns="http://www.w3.org/2000/svg" xmlns:xlink="http://www.w3.org/1999/xlink">
    <title>设置 (3)备份 3</title>
    <g id="页面-1" stroke="none" stroke-width="1" fill="none" fill-rule="evenodd">
        <g id="1产品管理-产品运营分析-切换" transform="translate(-1366.000000, -560.000000)">
            <g id="编组-5" transform="translate(264.000000, 557.000000)">
                <g id="编组-13备份-5" transform="translate(1102.000000, 0.000000)">
                    <g id="设置-(3)备份-3" transform="translate(0.000000, 3.000000)">
                        <rect id="矩形" x="0" y="0" width="14" height="14"></rect>
                        <path d="M2.2509745,14 C1.92822141,14 1.66783606,13.7396147 1.66783606,13.4168616 L1.66783606,4.66666667 C1.66783606,4.34391358 1.92822141,4.08352823 2.2509745,4.08352823 C2.57372759,4.08352823 2.83411293,4.34391358 2.83411293,4.66666667 L2.83411293,13.4168616 C2.83411293,13.7396147 2.57372759,14 2.2509745,14 M2.2509745,2.91725136 C1.92822141,2.91725136 1.66783606,2.65686602 1.66783606,2.33411293 L1.66783606,0.583138434 C1.66783606,0.260385344 1.92822141,0 2.2509745,0 C2.57372759,0 2.83411293,0.260385344 2.83411293,0.583138434 L2.83411293,2.33411293 C2.83411293,2.65530683 2.57372759,2.91725136 2.2509745,2.91725136 M6.91764116,14 C6.59488807,14 6.33450273,13.7396147 6.33450273,13.4168616 L6.33450273,11.6674463 C6.33450273,11.3446932 6.59488807,11.0843078 6.91764116,11.0843078 C7.24039425,11.0843078 7.5007796,11.3446932 7.5007796,11.6674463 L7.5007796,13.4168616 C7.5007796,13.7396147 7.24039425,14 6.91764116,14 M6.91764116,9.91647177 C6.59488807,9.91647177 6.33450273,9.65608642 6.33450273,9.33333333 L6.33450273,0.583138434 C6.33450273,0.260385344 6.59488807,0 6.91764116,0 C7.24039425,0 7.5007796,0.260385344 7.5007796,0.583138434 L7.5007796,9.33333333 C7.5007796,9.65608642 7.24039425,9.91647177 6.91764116,9.91647177 M11.5843078,14 C11.2615547,14 11.0011694,13.7396147 11.0011694,13.4168616 L11.0011694,4.66666667 C11.0011694,4.34391358 11.2615547,4.08352823 11.5843078,4.08352823 C11.9070609,4.08352823 12.1674463,4.34391358 12.1674463,4.66666667 L12.1674463,13.4168616 C12.1674463,13.7396147 11.9070609,14 11.5843078,14 M11.5843078,2.91725136 C11.2615547,2.91725136 11.0011694,2.65686602 11.0011694,2.33411293 L11.0011694,0.583138434 C11.0011694,0.260385344 11.2615547,0 11.5843078,0 C11.9070609,0 12.1674463,0.260385344 12.1674463,0.583138434 L12.1674463,2.33411293 C12.1674463,2.65530683 11.9070609,2.91725136 11.5843078,2.91725136" id="形状" fill="#A6B3C5" fill-rule="nonzero"></path>
                        <path d="M2.2509745,5.2498051 C1.28583361,5.2498051 0.5,4.46553068 0.5,3.5003898 C0.5,2.53524891 1.28583361,1.7509745 2.2494153,1.7509745 C3.21455619,1.7509745 3.99883292,2.53680811 3.99883292,3.5003898 C4.0003898,4.46553068 3.21455619,5.2498051 2.2509745,5.2498051 M2.2509745,2.91725136 C1.9297806,2.91725136 1.66783606,3.1791959 1.66783606,3.5003898 C1.66783606,3.8215837 1.9297806,4.08352823 2.2509745,4.08352823 C2.57216839,4.08352823 2.83411293,3.8215837 2.83411293,3.5003898 C2.83411293,3.17763671 2.57216839,2.91725136 2.2509745,2.91725136 M11.5843078,5.2498051 C10.6191669,5.2498051 9.83489253,4.46397149 9.83489253,3.4988306 C9.83489253,2.53368972 10.6207261,1.7494153 11.5843078,1.7494153 C12.5494487,1.7494153 13.3337231,2.53524891 13.3337231,3.4988306 C13.3337231,4.46553068 12.5494487,5.2498051 11.5843078,5.2498051 M11.5843078,2.91725136 C11.2631139,2.91725136 11.0011694,3.1791959 11.0011694,3.5003898 C11.0011694,3.8215837 11.2631139,4.08352823 11.5843078,4.08352823 C11.9070609,4.08352823 12.1674463,3.8215837 12.1674463,3.5003898 C12.1674463,3.17763671 11.9055017,2.91725136 11.5843078,2.91725136 M6.91764116,12.2505847 C5.95250028,12.2505847 5.16822586,11.4663103 5.16822586,10.5011694 C5.16822586,9.53602851 5.95405947,8.75175409 6.91764116,8.75175409 C7.88278205,8.75175409 8.66705647,9.5375877 8.66705647,10.5011694 C8.66705647,11.4647511 7.88122285,12.2505847 6.91764116,12.2505847 M6.91764116,9.91647177 C6.59644727,9.91647177 6.33450273,10.1768571 6.33450273,10.4996102 C6.33450273,10.8208041 6.59644727,11.0827486 6.91764116,11.0827486 C7.24039425,11.0827486 7.5007796,10.8208041 7.5007796,10.4996102 C7.5007796,10.1784163 7.23883506,9.91647177 6.91764116,9.91647177" id="形状" fill="#A6B3C5" fill-rule="nonzero"></path>
                    </g>
                </g>
            </g>
        </g>
    </g>
</svg>