<?xml version="1.0" encoding="UTF-8"?>
<svg width="14px" height="14px" viewBox="0 0 14 14" version="1.1" xmlns="http://www.w3.org/2000/svg" xmlns:xlink="http://www.w3.org/1999/xlink">
    <title>切片</title>
    <g id="产品管理" stroke="none" stroke-width="1" fill="none" fill-rule="evenodd">
        <g id="列表字段配置" transform="translate(-1076.000000, -74.000000)" fill="#4586E1">
            <g id="重置密码" transform="translate(1040.000000, 0.000000)">
                <g id="05-反馈/1-Alert警告提示/单行/B-信息提示" transform="translate(24.000000, 65.000000)">
                    <g id="icon" transform="translate(12.000000, 9.000000)">
                        <path d="M6.36363094,6.36363094 L6.36363094,10.8181845 C6.36363094,11.1696415 6.64854307,11.4545536 7,11.4545536 C7.35145693,11.4545536 7.63636906,11.1696415 7.63636906,10.8181845 L7.63636906,6.36363094 C7.63636906,6.01217401 7.35145693,5.72726188 7,5.72726188 C6.64854307,5.72726188 6.36363094,6.01217401 6.36363094,6.36363094 L6.36363094,6.36363094 Z M7,4.45453868 C7.52718127,4.45453868 7.95454613,4.02717381 7.95454613,3.49999254 C7.95454613,2.97281127 7.52718127,2.54544641 7,2.54544641 C6.47281873,2.54544641 6.04545387,2.97281127 6.04545387,3.49999254 C6.04545387,4.02717381 6.47281873,4.45453868 7,4.45453868 Z M7,14 C3.13400675,14 0,10.8659932 0,7 C0,3.13400675 3.13400675,0 7,0 C10.8659932,0 14,3.13400675 14,7 C14,8.85651543 13.2625021,10.6369928 11.9497475,11.9497475 C10.6369928,13.2625021 8.85651543,14 7,14 Z" id="Shape"></path>
                    </g>
                </g>
            </g>
        </g>
    </g>
</svg>